<svg width="464" height="167" viewBox="0 0 464 167" fill="none" xmlns="http://www.w3.org/2000/svg">
<path d="M0.269989 0L2.30799 34.382L38.261 32.811V2.11499L0.269989 0Z" fill="#EB2030"/>
<path d="M44.581 1.09V32.795L79.514 33.285V0.0629883L44.581 1.09Z" fill="#F68920"/>
<path d="M2.30798 40.242V69.847L38.261 71.937V40.242H2.30798Z" fill="#FED307"/>
<path d="M44.581 40.242V71.937L79.543 69.999L79.514 40.242H44.581Z" fill="#BA7129"/>
<path d="M0.269989 107.911L38.261 106.251V78.425L2.30799 76.191L0.269989 107.911Z" fill="#A0272B"/>
<path d="M116.575 45.97H105.249V37.607H116.575V28.081C116.575 17.602 122.82 11.992 133.617 11.992C136.157 11.992 138.274 12.31 140.285 12.839V21.201C139.227 20.883 137.427 20.672 135.628 20.672C129.065 20.672 126.63 23.318 126.63 29.351V37.607H140.285V45.97H126.63V96.249H116.575V45.97V45.97Z" fill="#474544"/>
<path d="M179.871 96.249L179.66 86.776H179.448C176.272 92.386 170.451 96.197 162.3 96.197C151.186 96.197 143.988 89.105 143.988 79.049C143.988 71.639 147.798 66.664 154.996 64.336C161.241 62.325 170.45 61.901 179.765 61.584V56.504C179.765 50.682 175.743 45.495 167.169 45.495C159.971 45.495 155.843 48.883 154.043 54.069L145.681 50.046C148.963 41.472 157.113 37.026 167.486 37.026C181.035 37.026 189.715 44.118 189.715 56.503V96.249H179.871V96.249ZM179.765 72.592V69.311C175.955 69.417 170.027 69.84 165.264 70.475C158.807 71.322 154.044 73.121 154.044 78.943C154.044 84.236 158.067 87.729 164.629 87.729C173.838 87.729 179.765 80.743 179.765 72.592Z" fill="#474544"/>
<path d="M199.981 66.877C199.981 50.047 210.037 37.027 227.503 37.027C238.299 37.027 245.921 42.214 250.261 50.365L241.898 55.128C239.04 49.624 234.488 45.601 227.291 45.601C216.177 45.601 210.143 54.916 210.143 66.665C210.143 78.097 215.964 87.623 227.926 87.623C235.442 87.623 239.993 83.812 242.745 78.414L250.684 82.966C246.661 90.905 238.617 96.197 227.608 96.197C210.143 96.197 199.981 83.601 199.981 66.877Z" fill="#474544"/>
<path d="M251.842 38.191H263.168V20.197H273.224V38.191H286.878V46.554H273.224V77.674C273.224 84.448 275.023 87.518 282.433 87.518C284.338 87.518 285.714 87.307 286.878 87.095V95.246C284.655 95.775 282.115 96.198 278.939 96.198C268.143 96.198 263.168 90.271 263.168 80.215V46.555H251.842V38.191V38.191Z" fill="#474544"/>
<path d="M343.718 96.249H333.874L333.768 86.671H333.556C329.851 92.281 323.395 96.197 315.138 96.197C302.859 96.197 295.133 88.258 295.133 76.297V38.191H305.188V74.286C305.188 81.696 309.317 87.517 318.102 87.517C327.629 87.517 333.662 80.955 333.662 72.063V38.191H343.718V96.249Z" fill="#474544"/>
<path d="M390.501 96.249L390.29 86.776H390.078C386.902 92.386 381.081 96.197 372.93 96.197C361.816 96.197 354.618 89.105 354.618 79.049C354.618 71.639 358.428 66.664 365.626 64.336C371.871 62.325 381.08 61.901 390.395 61.584V56.504C390.395 50.682 386.373 45.495 377.799 45.495C370.601 45.495 366.473 48.883 364.673 54.069L356.311 50.046C359.592 41.472 367.743 37.026 378.116 37.026C391.665 37.026 400.345 44.118 400.345 56.503V96.249H390.501V96.249ZM390.395 72.592V69.311C386.585 69.417 380.657 69.84 375.894 70.475C369.437 71.322 364.674 73.121 364.674 78.943C364.674 84.236 368.697 87.729 375.259 87.729C384.467 87.729 390.395 80.743 390.395 72.592Z" fill="#474544"/>
<path d="M414.209 96.249V11.697H424.265V96.249H414.209Z" fill="#474544"/>
<path d="M433.33 96.169V90.083H430.959V89H437.026V90.083H434.655V96.169H433.33Z" fill="#474544"/>
<path d="M445.312 89.001V96.169H444.006V90.923H443.987L442.139 96.169H440.981L439.133 90.952H439.114V96.169H437.836V89.001H439.674L441.578 94.536H441.597L443.501 89.001H445.312Z" fill="#474544"/>
<path d="M115.329 139.646H105.276V132.944H132.649V139.646H122.597V165.981H115.328V139.646H115.329Z" fill="#72C381"/>
<path d="M154.738 132.708H161.44L175.598 165.98H168L164.979 158.57H151.01L147.989 165.98H140.58L154.738 132.708ZM162.384 152.152L157.995 141.438L153.605 152.152H162.384Z" fill="#72C381"/>
<path d="M190.138 132.943H205.241C209.441 132.943 212.697 134.124 214.868 136.295C216.709 138.135 217.7 140.731 217.7 143.846V143.941C217.7 149.274 214.821 152.625 210.621 154.182L218.691 165.981H210.196L203.117 155.409H197.406V165.981H190.138V132.943ZM204.768 148.99C208.308 148.99 210.337 147.102 210.337 144.317V144.223C210.337 141.108 208.166 139.503 204.626 139.503H197.405V148.989H204.768V148.99Z" fill="#72C381"/>
<path d="M232.237 149.557V149.462C232.237 140.07 239.552 132.377 249.558 132.377C255.504 132.377 259.091 133.982 262.537 136.908L257.959 142.429C255.41 140.306 253.146 139.078 249.322 139.078C244.036 139.078 239.836 143.75 239.836 149.366V149.461C239.836 155.502 243.989 159.939 249.842 159.939C252.485 159.939 254.845 159.278 256.685 157.957V153.237H249.37V146.961H263.718V161.309C260.321 164.188 255.648 166.547 249.607 166.547C239.317 166.547 232.237 159.326 232.237 149.557Z" fill="#72C381"/>
<path d="M280.143 132.943H305.062V139.409H287.364V146.111H302.938V152.577H287.364V159.515H305.298V165.981H280.144V132.943H280.143Z" fill="#72C381"/>
<path d="M328.897 139.646H318.844V132.944H346.217V139.646H336.165V165.981H328.896V139.646H328.897Z" fill="#72C381"/>
<path d="M361.559 132.943H368.827V165.98H361.559V132.943Z" fill="#72C381"/>
<path d="M386.526 132.943H393.227L408.707 153.285V132.943H415.881V165.98H409.698L393.698 144.978V165.98H386.525V132.943H386.526Z" fill="#72C381"/>
<path d="M431.787 149.557V149.462C431.787 140.07 439.102 132.377 449.108 132.377C455.054 132.377 458.641 133.982 462.087 136.908L457.509 142.429C454.961 140.306 452.696 139.078 448.872 139.078C443.586 139.078 439.386 143.75 439.386 149.366V149.461C439.386 155.502 443.539 159.939 449.392 159.939C452.035 159.939 454.395 159.278 456.235 157.957V153.237H448.921V146.961H463.268V161.309C459.871 164.188 455.198 166.547 449.157 166.547C438.867 166.547 431.787 159.326 431.787 149.557Z" fill="#72C381"/>
</svg>
